<mxfile host="app.diagrams.net" modified="2024-06-13T21:55:28.104Z" agent="Mozilla/5.0 (Windows NT 10.0; Win64; x64) AppleWebKit/537.36 (KHTML, like Gecko) Chrome/125.0.0.0 Safari/537.36" version="24.5.2" etag="1_-gPeV5raHr887AiCQu" type="github">
  <diagram name="Page-1" id="chtsIYGMiupibZAUTHGb">
    <mxGraphModel>
      <root>
        <mxCell id="0" />
        <mxCell id="1" parent="0" />
      </root>
    </mxGraphModel>
  </diagram>
</mxfile>
